PathFileType	4	(X/Y/Z)	D:\Share\Shared_Data\Ergonomics\Sit To Stand Pertubation\S3\Unperturbed.trc
DataRate	CameraRate	NumFrames	NumMarkers	Units	OrigDataRate	OrigDataStartFrame	OrigNumFrames	
100	100	16	18	m	100	1488	191
Frame#	Time	R_Thigh			R_ASIS			R_Pelvis			V_Sacral			L_Pelvis			L_ASIS			Clavical			R_Acromium			L_Acromium			Sternum			Torso			R_Thigh_Med			R_Thigh_Lat			R_Shank_Med			R_Shank_Lat			R_Shank			R_Heel			R_Toe			
		X1	Y1	Z1	X2	Y2	Z2	X3	Y3	Z3	X4	Y4	Z4	X5	Y5	Z5	X6	Y6	Z6	X7	Y7	Z7	X8	Y8	Z8	X9	Y9	Z9	X10	Y10	Z10	X11	Y11	Z11	X12	Y12	Z12	X13	Y13	Z13	X14	Y14	Z14	X15	Y15	Z15	X16	Y16	Z16	X17	Y17	Z17	X18	Y18	Z18	

1488	14.87	0.16796312	0.57702472	0.10816209	0.01703421	0.63882849	0.13313425	-0.095423485	0.63554254	0.18507602	-0.20000171	0.64594263	-0.0025055513	-0.08656572	0.65698724	-0.20726657	0.020005548	0.64542383	-0.14614862	0.072117432	1.015624	-0.0022209251	0.032371235	1.082327	0.1663559	0.054185249	1.0782518	-0.16314903	0.076890221	0.9350874	0.0015939376	0.076511574	0.99918762	-0.066522751	0.35318164	0.46454611	0.082037064	0.33086261	0.44457162	0.19851509	0.25900262	0.10825221	0.094673515	0.23565463	0.099002373	0.17394884	0.26550031	0.27166238	0.20077153	0.17947729	0.056389553	0.1260626	0.39800995	0.055791142	0.13747227
1489	14.88	0.16826593	0.57678839	0.10785877	0.018691116	0.6378255	0.1332365	-0.093915497	0.63599463	0.18512785	-0.19825758	0.64767535	-0.0025260561	-0.084784454	0.65748077	-0.20706625	0.021790991	0.64455792	-0.14626437	0.080194756	1.0133976	-0.0018946934	0.041803783	1.0806504	0.16654607	0.063523018	1.0764561	-0.16180569	0.08358223	0.93265662	0.0019631777	0.084483902	0.99686554	-0.066080338	0.35339532	0.46434177	0.081839226	0.33107751	0.44446484	0.19837276	0.258944	0.10820255	0.094671455	0.23560469	0.098949982	0.17394734	0.26556244	0.27159286	0.20070242	0.17940157	0.057166042	0.1268278	0.39797189	0.055798988	0.13746576
1490	14.89	0.16857951	0.57652411	0.10751542	0.020348785	0.63671942	0.13330998	-0.092323723	0.63645184	0.18516495	-0.19634364	0.64949219	-0.0025593762	-0.082875305	0.65799115	-0.20686745	0.023711786	0.64362512	-0.14639079	0.088491882	1.0110165	-0.0015625772	0.051542225	1.0788243	0.16672758	0.073143532	1.0746838	-0.16046605	0.09044986	0.93009033	0.0023925059	0.092678543	0.99440479	-0.065602791	0.35361548	0.46410892	0.081597321	0.3313172	0.44434396	0.19820108	0.25890836	0.10809599	0.094802872	0.23554857	0.098896561	0.17393744	0.26563159	0.27151743	0.20061395	0.17933658	0.057689339	0.12739104	0.39792526	0.055811035	0.13744261
1491	14.9	0.16890645	0.57623145	0.10712493	0.022001078	0.63550629	0.13336708	-0.090629776	0.63691925	0.18519643	-0.1942417	0.65139056	-0.0026034417	-0.08081427	0.65851794	-0.20666928	0.025785923	0.64262421	-0.14652795	0.09699456	1.0084835	-0.0012247949	0.061561161	1.0768406	0.16689738	0.083029396	1.0728732	-0.15916971	0.097496429	0.92738831	0.002876585	0.10106431	0.99180804	-0.065098335	0.35384671	0.46384613	0.081320534	0.33158658	0.4442088	0.19800525	0.25889359	0.10793799	0.095055695	0.23548685	0.098843376	0.17391811	0.26571146	0.27143652	0.20050876	0.17928354	0.057978935	0.12776811	0.3978681	0.055827518	0.13739439
1492	14.91	0.16925459	0.57591302	0.10667952	0.0236537	0.63418793	0.13343538	-0.088811211	0.63740222	0.18523409	-0.19193497	0.65336798	-0.002652699	-0.078576546	0.65906195	-0.20647272	0.028029045	0.6415545	-0.14667427	0.10569009	1.0058044	-0.00088433927	0.071830948	1.0746917	0.16705168	0.09315567	1.0709348	-0.15796512	0.10470718	0.92454321	0.0033852851	0.1096065	0.98907928	-0.064580841	0.35409839	0.46355121	0.081024643	0.33189133	0.44405936	0.19779315	0.25889423	0.10774078	0.095399742	0.23542139	0.098790749	0.17388971	0.26580746	0.27134958	0.20039139	0.17924132	0.058082802	0.12799754	0.39779871	0.055848133	0.13731146
1493	14.92	0.16963737	0.57557745	0.10617153	0.025324181	0.63276782	0.13353616	-0.086842438	0.63790582	0.18528976	-0.18940767	0.65542474	-0.0026981168	-0.076138329	0.65962598	-0.20627841	0.030453529	0.6404176	-0.14682832	0.11456638	1.0029911	-0.0005456385	0.082320328	1.0723768	0.16718848	0.1034948	1.0687992	-0.15689154	0.11204733	0.92154016	0.0038596547	0.11826881	0.98622266	-0.064072052	0.35438391	0.46322202	0.080730598	0.33223743	0.44389551	0.19757628	0.25890106	0.10752499	0.095783417	0.23535515	0.098738564	0.17385384	0.26592566	0.27125546	0.20026811	0.17920703	0.058056725	0.12812242	0.39771661	0.055872471	0.13718561
1494	14.93	0.17007344	0.57524017	0.10559564	0.027060345	0.6312558	0.1336832	-0.084695541	0.6384361	0.18537462	-0.18664534	0.65756451	-0.0027273221	-0.073479248	0.66021454	-0.20608563	0.03306863	0.63921716	-0.14699052	0.12361251	1.0000627	-0.00021349867	0.092997734	1.0699041	0.16730783	0.11401968	1.066436	-0.15595845	0.11948318	0.91836969	0.0042345829	0.12702096	0.98324524	-0.063596672	0.35471799	0.4628577	0.080461815	0.33263101	0.44371716	0.19737004	0.25890433	0.10731468	0.09614769	0.23529182	0.098686783	0.17381273	0.26607193	0.27115247	0.20014665	0.1791772	0.057952068	0.12818018	0.39762311	0.055900032	0.13701421
1495	14.94	0.17058626	0.57492365	0.10495188	0.028955389	0.62967688	0.13388707	-0.082341095	0.63900104	0.18549832	-0.18363518	0.65979437	-0.0027267616	-0.070584518	0.66083429	-0.20589514	0.035880005	0.63796063	-0.14716302	0.13281982	0.99704431	0.00010742646	0.10383195	1.067293	0.16741096	0.12470436	1.0638524	-0.15515428	0.12701691	0.91505029	0.004481082	0.13585068	0.98016132	-0.0631702	0.35511362	0.46246024	0.080241829	0.3330795	0.4435231	0.19719362	0.25889645	0.10713295	0.096437477	0.23523476	0.098635696	0.17376917	0.26625113	0.27103946	0.20003558	0.17914917	0.0578097	0.12819839	0.3975228	0.055929726	0.13680513
1496	14.95	0.1712037	0.57465649	0.10424856	0.031121534	0.62806598	0.13415416	-0.079749687	0.63961157	0.185668	-0.18036526	0.66212341	-0.0026865215	-0.067445923	0.66149445	-0.20571265	0.038888725	0.63665985	-0.14734903	0.14218225	0.99396539	0.00041299579	0.11479269	1.0645731	0.16749976	0.13552487	1.0610804	-0.15446095	0.13470409	0.9116394	0.0046271863	0.14477145	0.97699475	-0.062791824	0.35558127	0.46203659	0.080092857	0.33359055	0.44331052	0.19706927	0.25887189	0.10700082	0.096602898	0.2351862	0.098585289	0.17372589	0.26646677	0.27091556	0.19994411	0.17912245	0.057658279	0.12819455	0.39742502	0.055958809	0.13658302
1497	14.96	0.17195645	0.57447174	0.10350479	0.033635593	0.62645581	0.13448305	-0.076892921	0.64028247	0.18588716	-0.17682431	0.66456104	-0.0026034322	-0.064060913	0.66220703	-0.20554932	0.042090988	0.63533154	-0.14755215	0.15169556	0.99085803	0.00069989049	0.1258513	1.0617839	0.16757581	0.14646002	1.0581682	-0.15385966	0.14262791	0.9082168	0.0047352386	0.15381358	0.97377649	-0.062450134	0.35613007	0.46159949	0.080033958	0.33417151	0.44307434	0.19702065	0.25883072	0.10693079	0.096615204	0.23514757	0.098534714	0.17368544	0.26672186	0.27077963	0.19988142	0.17909863	0.057515617	0.12817802	0.39734473	0.055981903	0.13639214
1498	14.97	0.17287543	0.57440192	0.1027515	0.036519234	0.6248703	0.13486345	-0.073743675	0.64103107	0.18615541	-0.17300171	0.66711688	-0.0024783204	-0.060430599	0.66298773	-0.20541895	0.045478794	0.63399652	-0.14777592	0.16135645	0.98775446	0.00096556622	0.13698143	1.0589681	0.16763933	0.15749187	1.0551713	-0.15333217	0.15085243	0.90485272	0.0048619819	0.16300464	0.97054077	-0.062133884	0.35676816	0.46117007	0.080077232	0.33482883	0.44280765	0.19707066	0.25878369	0.10691839	0.096488426	0.23512059	0.098482491	0.1736497	0.26701956	0.27062946	0.19985632	0.17908067	0.057391567	0.12815257	0.39729913	0.05599147	0.13628355
1499	14.98	0.17398779	0.57447345	0.10202995	0.039761044	0.62332953	0.13527797	-0.070277039	0.64187671	0.18646823	-0.1688882	0.66980127	-0.0023113863	-0.056558815	0.66385559	-0.20533372	0.049042233	0.63267902	-0.14802396	0.17116119	0.98468494	0.0012078106	0.1481595	1.0561697	0.16768799	0.16860486	1.052147	-0.15286166	0.15940047	0.90159326	0.0050383787	0.17235692	0.96732111	-0.061837669	0.35750342	0.4607749	0.080227341	0.33556784	0.44250217	0.19723828	0.2587504	0.10694346	0.096275963	0.23510809	0.09842659	0.17361917	0.26736435	0.2704617	0.19987659	0.17907185	0.057291161	0.12811902	0.39730099	0.055979702	0.13629044
1500	14.99	0.17531172	0.57469946	0.10138787	0.043338245	0.62185211	0.13570383	-0.066471458	0.64283759	0.18681847	-0.16447778	0.67262421	-0.0021003916	-0.05245219	0.66483179	-0.20529811	0.052773197	0.63140594	-0.14830043	0.18110374	0.98167664	0.0014244292	0.15936546	1.0534269	0.16771658	0.17978415	1.0491479	-0.15243578	0.16826125	0.8984635	0.0052721062	0.18186658	0.96414899	-0.061561993	0.35834634	0.46043079	0.080491608	0.33639273	0.44214951	0.19753484	0.25874963	0.10698382	0.096033058	0.23511409	0.098364677	0.1735919	0.26776187	0.27027252	0.1999482	0.17907538	0.057216541	0.12807733	0.39735318	0.055940331	0.13640971
1501	15	0.1768533	0.5750769	0.10087553	0.047224518	0.62045526	0.13611446	-0.06230983	0.64392926	0.18719893	-0.15976987	0.67559259	-0.0018411403	-0.04812043	0.6659364	-0.20530499	0.056669155	0.63020703	-0.14860957	0.19117371	0.97875354	0.0016135558	0.1705833	1.05077	0.16771835	0.19101373	1.0462186	-0.152049	0.17740164	0.89547693	0.005554461	0.1915172	0.96105267	-0.06131144	0.35931158	0.46013196	0.080885368	0.3373071	0.44174216	0.19796049	0.25878839	0.10703062	0.095774239	0.23514352	0.098295258	0.17356169	0.26821765	0.27005783	0.20007359	0.17909372	0.057167519	0.12802734	0.39744778	0.055869606	0.13660014
1502	15.01	0.17860757	0.57558588	0.10054285	0.05139159	0.61915619	0.13648195	-0.057781006	0.64516241	0.18760448	-0.15477112	0.67870825	-0.0015288332	-0.043575802	0.66718689	-0.20533884	0.060735966	0.6291145	-0.14895395	0.20135367	0.97593695	0.0017738273	0.18180098	1.0482192	0.1676868	0.20227637	1.0433939	-0.15169974	0.18677153	0.89264008	0.0058636904	0.2012843	0.95805762	-0.061091965	0.36041385	0.45985812	0.081417542	0.33831516	0.44127289	0.19850197	0.25886328	0.10708515	0.0954814	0.23520117	0.098218918	0.17351857	0.26873618	0.26981369	0.20024924	0.17912823	0.057141407	0.12796899	0.39756995	0.055766399	0.13679778
1503	15.02	0.18056361	0.57619696	0.1004351	0.05580838	0.61797333	0.13678015	-0.052883114	0.64654218	0.18803218	-0.14949667	0.68196674	-0.0011593534	-0.038832806	0.66859491	-0.20538286	0.064991669	0.62816248	-0.1493313	0.21161719	0.973245	0.0019036832	0.193008	1.0457837	0.16761659	0.21355444	1.0407017	-0.15138512	0.1963058	0.88995642	0.0061671462	0.21113806	0.95518707	-0.060908615	0.36166287	0.45958856	0.082074356	0.33942307	0.44073499	0.19913167	0.25897238	0.10714106	0.095152496	0.23529015	0.098138214	0.17345238	0.26932074	0.26953699	0.20046286	0.17917856	0.05713306	0.12790167	0.39770502	0.055631916	0.13694281
